<?xml version="1.0" standalone="no"?>
<!DOCTYPE svg PUBLIC "-//W3C//DTD SVG 20010904//EN"
 "http://www.w3.org/TR/2001/REC-SVG-20010904/DTD/svg10.dtd">
<svg version="1.0" xmlns="http://www.w3.org/2000/svg"
 width="1515.428186pt" height="1691.695130pt" viewBox="0 0 1515.428186 1691.695130"
 preserveAspectRatio="xMidYMid meet">

<g transform="translate(-223.363696,1790.739318) scale(0.100000,-0.100000)"
fill="#000000" stroke="none">
<path d="M12380 17898 c-139 -28 -293 -97 -450 -200 -128 -83 -310 -268 -475
-480 -72 -92 -136 -167 -142 -167 -54 -3 4 349 84 502 20 39 4 56 -28 30 -31
-24 -146 -138 -184 -183 -53 -62 -81 -103 -137 -200 -81 -143 -113 -225 -151
-395 -15 -65 -20 -93 -47 -249 -20 -115 -26 -117 -420 -127 -340 -9 -575 -21
-734 -40 -68 -8 -157 -9 -271 -4 -93 4 -351 10 -572 14 -385 6 -403 7 -430 27
-15 11 -68 74 -118 140 -203 269 -321 420 -378 483 -119 130 -281 290 -289
285 -4 -3 -8 -38 -8 -79 0 -75 16 -155 52 -258 11 -32 18 -61 15 -64 -10 -9
-42 7 -77 39 -19 17 -58 52 -85 77 -28 25 -79 71 -114 101 -36 30 -112 97
-170 149 -132 117 -182 154 -194 142 -5 -5 -4 -32 2 -67 14 -75 14 -84 -3 -90
-8 -3 -82 24 -163 59 -200 89 -329 137 -418 158 -329 77 -617 65 -922 -37
-117 -39 -255 -103 -418 -194 -55 -30 -578 -377 -837 -555 -59 -40 -111 -75
-115 -77 -4 -1 -60 -37 -123 -79 -146 -97 -438 -278 -694 -431 -286 -171 -356
-219 -424 -292 -77 -82 -106 -132 -306 -529 -240 -473 -309 -606 -344 -663
-47 -76 -64 -122 -57 -155 15 -65 93 -123 205 -149 98 -24 455 -11 615 22 154
31 271 63 357 99 256 104 381 182 567 350 123 112 123 113 140 91 9 -12 36
-84 60 -160 24 -75 52 -162 63 -192 11 -30 24 -68 28 -85 5 -16 24 -75 43
-130 61 -174 109 -334 102 -345 -3 -5 -12 -10 -19 -10 -22 0 -131 37 -175 60
-33 16 -42 18 -47 7 -8 -21 59 -170 125 -277 22 -36 47 -81 56 -100 15 -33 15
-37 -6 -75 -58 -104 -99 -191 -108 -229 -36 -149 -43 -186 -38 -200 5 -14 9
-14 34 -1 54 28 153 14 153 -21 0 -24 -44 -107 -108 -203 -119 -178 -138 -240
-69 -227 104 18 201 26 211 16 7 -7 -8 -47 -51 -133 -154 -303 -174 -330 -411
-551 -29 -27 -51 -53 -49 -59 9 -28 63 -52 154 -68 135 -25 576 -27 701 -3 77
14 85 14 102 -1 26 -24 46 -93 63 -225 52 -378 50 -628 -6 -790 -31 -91 -153
-310 -244 -438 -72 -102 -246 -271 -345 -337 -49 -31 -88 -63 -88 -71 0 -29
41 -37 167 -30 145 8 253 29 416 79 38 12 49 13 53 3 6 -15 -103 -194 -245
-404 -146 -217 -230 -345 -238 -362 -4 -8 -21 -38 -39 -66 -83 -129 -110 -214
-70 -214 7 0 78 69 157 152 79 84 161 171 182 193 21 22 90 102 154 178 64 75
120 137 125 137 11 0 10 -23 -1 -35 -11 -13 -71 -185 -71 -205 0 -8 -12 -52
-26 -98 -18 -55 -23 -87 -17 -93 13 -13 168 47 265 101 24 13 48 13 48 -2 0
-6 -109 -120 -243 -252 -280 -278 -289 -288 -362 -400 -87 -134 -159 -297
-192 -439 -21 -91 -24 -368 -5 -442 7 -27 17 -66 23 -86 11 -42 45 -89 64 -89
8 0 20 21 29 48 29 99 114 231 199 309 99 91 256 186 327 198 70 12 56 -19
-77 -173 -111 -127 -171 -232 -216 -377 -52 -165 -63 -238 -79 -500 -20 -345
2 -727 57 -975 10 -41 21 -93 26 -115 19 -94 113 -337 165 -430 15 -27 33 -59
39 -70 6 -11 32 -51 57 -90 101 -150 108 -151 173 -13 117 252 220 422 368
611 152 194 310 458 288 480 -15 15 -126 -41 -231 -118 -172 -125 -189 -135
-194 -127 -12 20 65 233 143 392 80 162 79 210 -1 144 -52 -43 -282 -258 -354
-331 -80 -81 -89 -71 -54 57 12 41 32 109 46 150 73 214 277 537 497 785 85
96 387 395 398 395 7 0 69 -95 69 -105 0 -3 27 -42 59 -87 110 -154 153 -183
374 -253 26 -8 55 -15 65 -15 45 0 79 -38 131 -145 47 -96 63 -118 149 -204
53 -53 129 -118 168 -143 103 -68 249 -131 369 -159 131 -29 233 -49 258 -49
15 0 43 -6 61 -14 37 -15 44 -34 70 -196 27 -171 38 -311 35 -439 -4 -112 -2
-126 13 -129 12 -2 26 17 52 71 36 75 81 187 96 242 27 95 52 193 74 290 15
60 32 116 40 124 18 17 77 8 99 -17 17 -20 58 -146 80 -247 32 -145 40 -240
35 -433 -2 -105 -1 -192 2 -192 13 0 48 47 89 117 81 137 178 387 216 553 44
195 52 209 108 195 18 -5 29 -19 40 -48 31 -86 43 -132 87 -333 5 -22 16 -118
25 -212 15 -158 15 -186 0 -340 -8 -92 -20 -189 -26 -217 -12 -56 -35 -159
-50 -220 -45 -190 44 -135 205 128 70 114 158 286 240 472 27 61 57 128 67
150 10 22 36 87 59 145 65 166 73 183 98 223 38 63 57 29 86 -158 32 -209 38
-301 33 -505 -6 -225 -14 -290 -54 -422 -20 -67 -24 -91 -15 -100 9 -9 16 -7
27 8 28 35 121 188 164 269 91 168 123 217 134 206 37 -37 33 -350 -9 -558
-30 -151 -99 -367 -177 -548 -110 -260 -106 -314 16 -188 60 63 179 227 239
330 87 152 210 422 249 548 21 66 51 182 59 225 46 249 50 284 50 545 0 294
-9 388 -65 700 -9 50 -20 108 -26 130 -29 126 -40 210 -42 315 l-2 117 373
369 c256 253 387 375 415 388 80 36 539 33 792 -5 257 -39 421 -75 590 -131
268 -88 377 -150 750 -423 309 -226 390 -274 416 -248 23 23 -75 245 -208 472
-40 67 -73 126 -73 129 0 3 -7 13 -16 23 -17 19 -11 39 12 39 20 0 115 -48
189 -95 137 -87 245 -176 415 -339 147 -142 213 -196 235 -196 48 0 130 135
160 267 13 54 14 77 5 118 -42 191 -120 344 -291 575 -96 130 -178 254 -173
262 18 29 263 -49 424 -135 272 -146 297 -161 550 -326 120 -78 152 -92 164
-72 12 18 -14 157 -41 221 -36 88 -93 194 -172 320 -59 96 -104 156 -289 394
-82 104 -98 134 -78 142 9 3 73 -17 143 -44 70 -28 162 -63 203 -77 41 -15
120 -44 175 -65 55 -21 117 -42 138 -45 33 -7 37 -5 37 14 0 28 -59 146 -118
236 -65 98 -315 346 -422 416 -74 49 -249 151 -388 226 -365 197 -543 338
-712 564 -98 131 -177 258 -219 351 -75 166 -132 394 -103 412 13 8 24 -3 127
-134 250 -314 592 -653 915 -906 147 -115 394 -253 550 -307 25 -9 77 -28 115
-43 39 -14 104 -39 146 -54 176 -65 221 -89 297 -162 57 -53 226 -279 339
-453 15 -22 54 -74 88 -115 146 -178 159 -230 195 -790 4 -74 13 -216 19 -315
6 -99 16 -250 21 -335 13 -199 13 -984 0 -1064 -5 -33 -14 -106 -20 -161 -29
-273 -60 -402 -151 -633 -57 -143 -159 -332 -238 -442 -82 -113 -314 -360
-339 -360 -20 0 -20 14 -6 145 20 196 28 510 15 675 -12 168 -28 235 -55 235
-20 0 -23 -9 -66 -185 -12 -47 -30 -119 -40 -160 -101 -414 -164 -584 -310
-845 -48 -86 -225 -346 -249 -365 -3 -3 -35 -39 -70 -80 -79 -94 -241 -260
-252 -260 -12 0 -11 12 5 62 18 54 41 160 58 263 20 122 17 518 -5 617 -20 89
-35 128 -52 128 -14 0 -35 -42 -35 -70 0 -10 -6 -45 -14 -77 -7 -32 -21 -92
-30 -133 -38 -169 -118 -418 -182 -567 -8 -17 -14 -34 -14 -39 0 -22 -113
-226 -186 -336 -143 -216 -359 -455 -393 -434 -4 3 0 36 11 73 10 38 23 88 28
113 6 25 17 74 25 110 25 108 44 248 51 383 10 190 -5 177 -142 -128 -109
-243 -213 -447 -292 -575 -166 -265 -487 -649 -687 -819 -158 -136 -366 -273
-379 -252 -4 5 38 83 92 173 151 250 225 409 204 430 -5 5 -63 -22 -133 -63
-179 -104 -291 -160 -307 -154 -9 3 26 47 106 132 187 200 499 563 608 708 67
89 186 267 221 329 23 40 136 271 153 311 36 85 79 224 104 335 46 207 60 323
61 505 0 193 -20 348 -80 620 -9 39 -20 90 -25 115 -5 25 -17 70 -25 100 -9
30 -20 69 -25 85 -4 17 -18 59 -29 95 -12 36 -28 88 -37 115 -9 28 -26 79 -39
115 -79 223 -110 289 -127 272 -6 -6 -9 -131 -8 -304 1 -455 -20 -698 -86
-988 -25 -107 -101 -355 -134 -435 -7 -16 -16 -39 -21 -50 -4 -11 -23 -56 -40
-100 -41 -99 -134 -289 -196 -398 -25 -45 -51 -91 -57 -102 -21 -38 -140 -210
-211 -306 -114 -152 -520 -642 -724 -874 -26 -29 -186 -228 -343 -426 -87
-109 -269 -360 -315 -434 -28 -45 -51 -87 -125 -225 -13 -25 -35 -70 -47 -100
-13 -30 -34 -77 -46 -105 -33 -72 -89 -245 -116 -355 -13 -52 -31 -102 -40
-111 -23 -23 -112 -32 -329 -33 l-175 -1 -3 75 c-4 74 7 159 34 275 7 33 21
92 29 130 9 39 21 84 26 100 30 97 53 164 93 279 67 188 61 225 -22 129 -219
-254 -388 -659 -407 -973 -9 -146 -3 -162 65 -185 87 -29 891 -12 1160 25 291
39 425 60 555 86 17 3 64 12 105 20 92 18 109 22 345 80 428 104 792 219 1160
366 28 11 70 29 95 40 25 11 54 24 65 28 66 27 271 117 335 147 41 19 113 52
160 74 86 39 200 96 347 175 85 45 110 59 233 129 41 23 93 53 115 65 425 238
977 613 1380 938 113 91 249 206 265 222 3 3 39 34 80 69 41 35 125 110 185
166 61 56 124 114 140 128 65 54 419 439 526 572 377 468 668 982 772 1365 8
30 21 94 27 141 12 80 11 91 -9 152 -11 36 -55 133 -97 214 -42 81 -108 209
-147 283 -98 189 -245 485 -307 615 -51 107 -151 308 -381 765 -63 124 -134
268 -158 320 -50 108 -111 237 -201 425 -34 72 -87 181 -116 242 -30 62 -54
115 -54 118 0 2 -11 28 -24 57 -39 85 -130 312 -186 463 -28 77 -55 149 -60
160 -4 11 -22 61 -40 110 -17 50 -35 99 -40 110 -5 11 -29 81 -54 155 -24 74
-49 146 -54 160 -6 14 -23 59 -37 100 -15 41 -31 84 -35 95 -5 11 -23 56 -41
100 -18 44 -43 97 -56 117 -13 21 -23 40 -23 43 0 16 -112 155 -147 182 -63
51 -194 129 -373 226 -107 57 -200 120 -200 135 0 18 137 16 240 -4 109 -22
208 -54 318 -105 48 -23 121 -57 162 -76 41 -20 107 -48 147 -63 111 -43 111
-30 -2 115 -67 86 -275 403 -275 419 0 2 -22 42 -50 90 -27 48 -50 89 -50 91
0 2 -13 32 -29 67 -43 95 -55 138 -42 151 8 8 44 8 133 -1 265 -26 288 -13
164 88 -115 95 -206 146 -366 205 -109 40 -107 39 -202 80 -127 54 -266 161
-242 185 7 7 25 5 55 -8 49 -21 150 -46 250 -62 126 -19 138 -13 96 50 -26 38
-57 93 -120 210 -22 41 -55 104 -74 138 -42 76 -35 98 21 68 37 -20 181 -164
261 -261 97 -117 151 -167 235 -219 102 -62 158 -82 178 -62 11 11 4 28 -42
102 -31 49 -85 130 -121 179 -145 203 -188 272 -282 455 -39 76 -32 95 25 65
20 -11 84 -49 142 -84 131 -80 174 -103 228 -120 55 -19 71 -6 52 41 -23 55
-175 299 -240 383 -33 44 -60 88 -60 98 0 11 45 64 108 126 117 114 157 169
221 301 23 47 46 92 50 100 5 9 12 35 16 58 5 33 3 43 -8 48 -9 3 -67 -20
-130 -50 -63 -31 -119 -56 -124 -56 -6 0 -24 -7 -41 -16 -18 -8 -40 -14 -50
-12 -23 5 -20 55 6 111 19 40 39 90 165 397 31 74 74 176 97 225 127 273 148
320 189 420 21 50 52 135 70 190 17 55 35 114 40 130 9 28 51 193 88 345 22
91 62 208 81 239 20 32 64 88 170 215 128 154 172 243 172 349 0 60 -12 89
-60 138 -63 65 -145 97 -310 123 -93 14 -137 20 -385 51 -127 16 -203 28 -325
50 -41 8 -115 21 -165 30 -49 9 -108 20 -130 25 -258 56 -313 69 -355 80 -19
5 -87 21 -150 36 -63 14 -133 32 -155 39 -22 7 -67 20 -100 30 -98 28 -357
115 -392 131 -17 7 -36 14 -42 14 -6 0 -19 4 -29 9 -38 21 -394 144 -517 179
-45 13 -146 38 -187 47 -16 3 -28 11 -28 19 0 7 35 42 78 78 113 96 126 112
107 128 -21 17 -151 2 -300 -37 -64 -16 -76 -20 -170 -49 -60 -18 -135 -58
-135 -72 -1 -4 -23 -32 -50 -62 -28 -30 -48 -59 -47 -65 2 -5 30 -9 63 -8 103
3 248 -17 345 -48 110 -34 445 -198 604 -294 97 -59 362 -260 394 -299 24 -29
-9 -26 -116 10 -59 20 -146 46 -193 58 -47 13 -102 31 -122 40 -57 27 -64 12
-21 -47 20 -29 40 -54 43 -57 3 -3 32 -38 65 -79 33 -41 87 -104 120 -141 74
-81 94 -105 170 -200 33 -41 62 -77 65 -80 3 -3 41 -50 84 -105 44 -55 105
-129 135 -165 31 -35 72 -83 91 -105 72 -84 228 -232 290 -276 150 -107 276
-148 448 -149 207 0 249 30 327 238 27 70 51 132 55 137 4 6 15 32 25 59 51
137 185 378 267 478 21 26 38 51 38 57 0 10 -54 28 -125 41 -71 13 -249 49
-300 61 -27 6 -68 15 -90 20 -36 7 -105 24 -205 49 -89 23 -151 40 -230 65
-47 15 -105 33 -130 40 -25 7 -65 20 -90 29 -25 10 -54 20 -65 23 -11 4 -36
16 -55 28 -19 12 -43 24 -53 28 -10 4 -15 12 -11 18 8 13 123 7 209 -10 113
-23 314 -54 660 -100 44 -6 127 -18 185 -26 58 -7 175 -21 260 -30 308 -32
346 -37 410 -55 67 -20 110 -49 110 -76 0 -20 -46 -61 -160 -143 -110 -79
-187 -157 -252 -256 -49 -74 -138 -243 -177 -335 -87 -206 -124 -267 -218
-363 -92 -94 -190 -127 -373 -127 -294 0 -541 79 -779 249 -204 146 -289 225
-826 770 -279 283 -470 466 -565 542 -135 108 -277 134 -430 78 -50 -18 -187
-108 -255 -167 -34 -30 -56 -16 -34 20 27 43 139 336 139 363 0 8 -8 15 -18
15 -27 0 -189 -117 -257 -185 -57 -57 -173 -186 -185 -205 -9 -15 -63 -31 -72
-22 -5 5 -3 23 5 43 8 19 27 66 43 104 147 376 366 625 651 741 85 35 114 53
177 110 105 96 102 116 -14 92z m-6040 -518 c188 -40 334 -90 495 -171 133
-68 196 -111 251 -172 53 -58 154 -190 154 -200 0 -18 -49 -1 -181 66 -165 84
-197 95 -205 72 -9 -22 13 -162 32 -201 25 -52 8 -58 -49 -16 -228 167 -379
236 -550 252 -91 9 -270 -2 -332 -19 -232 -67 -412 -168 -685 -386 -84 -67
-316 -294 -377 -370 -23 -27 -65 -79 -95 -115 -82 -100 -176 -222 -278 -365
-306 -427 -710 -842 -945 -971 -91 -50 -140 -73 -200 -98 -38 -15 -79 -32 -90
-36 -116 -48 -220 -75 -340 -90 -38 -4 -97 -13 -129 -19 -76 -14 -336 -15
-336 -1 0 6 10 10 23 11 67 2 322 20 387 28 155 18 370 89 540 180 140 74 350
249 457 381 15 19 36 44 46 55 18 20 149 214 185 275 25 43 205 404 237 477
13 29 20 55 15 58 -5 3 -26 -5 -47 -18 -21 -14 -85 -50 -143 -81 -151 -81
-199 -108 -351 -202 -126 -78 -159 -94 -159 -78 0 4 55 64 123 133 147 153
275 300 346 398 51 70 60 103 23 83 -9 -5 -64 -31 -122 -58 -58 -27 -163 -77
-235 -112 -71 -34 -139 -66 -150 -70 -11 -5 -55 -25 -98 -45 -43 -20 -96 -43
-119 -51 -46 -16 -98 -19 -98 -4 0 21 206 170 440 318 210 133 409 261 525
336 111 73 153 100 267 170 85 52 102 63 340 220 114 75 210 136 213 136 2 0
33 18 69 39 53 33 249 131 321 162 87 36 244 79 360 98 39 6 81 13 95 15 46 8
314 -2 370 -14z m102 -640 c110 -40 196 -93 301 -185 105 -92 105 -119 1 -54
-38 23 -76 48 -84 55 -37 30 -223 126 -327 169 -32 12 -59 28 -61 34 -7 22 87
11 170 -19z m4396 -441 c42 -16 18 -111 -60 -228 -27 -41 -46 -81 -44 -88 4
-8 25 -13 63 -14 71 -1 404 -18 493 -25 109 -9 105 -27 -23 -102 -43 -26 -100
-60 -125 -75 -26 -15 -57 -32 -69 -37 -29 -12 -29 -28 0 -38 22 -8 142 -30
290 -54 43 -7 82 -17 88 -24 11 -13 -32 -44 -127 -92 -74 -37 -153 -106 -139
-121 6 -5 55 -17 110 -26 204 -32 295 -55 295 -74 0 -6 -17 -13 -37 -16 -21
-4 -51 -11 -67 -16 -16 -5 -39 -9 -51 -9 -31 0 -171 -46 -220 -72 -61 -32 -71
-44 -55 -63 17 -21 106 -61 200 -91 94 -30 111 -40 90 -54 -8 -5 -23 -10 -32
-10 -42 0 -170 -40 -271 -84 -21 -9 -42 -16 -47 -16 -17 0 -143 -62 -194 -96
-132 -86 -158 -132 -67 -120 81 10 221 -22 165 -39 -53 -16 -196 -95 -264
-146 -108 -82 -263 -247 -345 -367 -66 -98 -69 -104 -51 -118 10 -7 45 -16 78
-20 32 -4 61 -11 64 -16 3 -5 -4 -20 -16 -33 -28 -30 -80 -134 -80 -161 0 -28
16 -40 155 -119 323 -183 501 -335 617 -524 32 -52 55 -98 52 -102 -6 -11 -53
12 -116 57 -86 61 -209 135 -306 184 -158 79 -285 118 -472 145 -63 8 -146 20
-185 26 -38 5 -74 14 -80 20 -9 9 30 92 82 169 13 19 23 40 23 46 0 14 -86 61
-147 79 -26 8 -71 15 -100 15 -28 0 -54 4 -57 9 -6 9 39 127 56 146 13 14 9
45 -6 51 -18 7 -122 -36 -198 -82 -151 -92 -314 -314 -404 -550 -27 -70 -31
-84 -59 -189 -52 -198 -59 -695 -14 -950 23 -127 66 -253 141 -415 79 -170
191 -340 224 -340 8 0 14 1 14 3 0 6 -31 101 -40 122 -17 41 -40 113 -65 202
-20 72 -25 115 -25 201 0 107 1 109 36 168 59 98 81 139 212 394 143 280 162
311 245 391 112 110 219 145 407 136 160 -9 252 -37 396 -124 95 -57 242 -197
304 -290 86 -129 64 -126 -106 13 -289 236 -413 294 -634 294 -123 0 -168 -12
-241 -65 -60 -45 -97 -96 -189 -260 -40 -71 -81 -143 -91 -160 -38 -63 -129
-251 -129 -267 0 -46 162 -69 242 -34 48 21 55 48 34 134 -22 94 -21 184 3
206 24 22 33 11 62 -77 48 -146 159 -251 314 -297 30 -9 55 -9 99 -1 131 24
213 95 291 253 29 61 57 104 67 106 20 4 57 -34 65 -66 9 -36 -60 -163 -117
-216 -43 -41 -73 -58 -164 -95 -56 -23 -121 -32 -284 -40 -89 -5 -166 -12
-170 -16 -12 -12 53 -59 110 -80 74 -27 248 -27 333 0 119 38 195 84 286 175
47 47 100 106 117 133 18 26 38 47 45 47 22 0 87 -50 87 -68 0 -44 -85 -151
-183 -230 -98 -79 -164 -118 -255 -149 -72 -24 -90 -26 -262 -26 -272 0 -358
20 -513 121 -98 64 -99 65 -155 59 -77 -8 -85 -19 -63 -82 10 -27 23 -63 29
-78 7 -16 12 -31 12 -34 0 -11 96 -195 149 -287 28 -49 51 -91 51 -93 0 -2 30
-47 66 -101 163 -239 307 -383 444 -445 38 -16 101 -37 195 -62 169 -46 226
-68 223 -84 -5 -24 -44 -29 -283 -30 -253 -1 -295 -6 -295 -31 0 -17 115 -133
198 -199 23 -19 42 -38 42 -43 0 -4 -44 -40 -97 -80 -54 -39 -137 -111 -185
-159 -100 -100 -139 -170 -159 -284 -13 -77 -27 -568 -19 -673 l5 -67 38 -12
c29 -10 65 -11 150 -3 168 15 449 13 537 -4 142 -28 220 -79 269 -177 52 -105
42 -179 -50 -368 -135 -274 -243 -426 -454 -636 -284 -285 -418 -392 -615
-491 -41 -20 -97 -52 -125 -69 -124 -79 -324 -169 -500 -224 -76 -23 -121 -41
-203 -77 -29 -13 -54 -24 -57 -24 -2 0 -37 -16 -79 -35 -109 -50 -203 -83
-341 -120 -210 -56 -905 -59 -1190 -5 -308 57 -441 121 -582 274 -85 92 -137
208 -100 222 22 8 161 -28 352 -91 232 -76 374 -104 655 -126 156 -12 337 -8
480 10 41 5 134 17 205 26 273 34 342 46 455 80 30 8 69 20 85 25 289 85 285
84 387 135 74 36 102 57 247 182 37 32 78 57 104 63 99 27 173 63 347 170 331
204 401 273 575 575 141 243 155 286 114 338 -33 43 -82 52 -180 32 -149 -30
-231 -85 -330 -219 -33 -44 -66 -88 -73 -97 -8 -9 -104 -137 -215 -285 -188
-250 -212 -278 -339 -392 -207 -186 -339 -266 -542 -330 -143 -45 -381 -52
-720 -22 -124 12 -272 25 -330 30 -58 6 -121 12 -140 15 -19 3 -91 10 -160 15
-207 17 -320 35 -340 56 -17 19 -35 73 -61 183 -17 70 -10 75 136 90 254 25
400 86 526 217 128 133 218 317 274 559 9 39 20 88 26 110 11 46 56 275 69
350 5 28 16 88 25 135 42 225 31 292 -64 383 -85 81 -283 171 -476 215 -307
71 -886 82 -1135 22 -154 -38 -264 -102 -372 -218 -56 -61 -149 -201 -182
-277 -9 -22 -21 -49 -27 -60 -22 -48 -39 -145 -39 -220 1 -92 24 -204 70 -325
17 -47 46 -144 64 -216 47 -186 97 -278 209 -386 47 -46 193 -148 212 -148 2
0 28 -11 57 -25 76 -35 157 -59 323 -95 195 -43 196 -44 216 -72 11 -15 25
-43 30 -61 8 -26 39 -156 39 -164 0 -30 -713 -42 -840 -14 -142 31 -208 81
-294 220 -78 128 -101 184 -146 351 -5 19 -16 60 -24 90 -22 80 -42 174 -56
260 -6 41 -16 95 -22 120 -36 156 -50 400 -27 512 40 204 103 400 191 597 10
24 28 67 39 95 11 28 26 65 34 81 7 17 25 57 40 90 15 33 65 137 111 230 76
157 99 200 194 370 69 124 186 315 288 470 58 88 137 211 176 273 39 63 83
132 98 155 15 23 31 49 35 57 10 22 70 118 104 167 16 23 29 43 29 46 0 3 29
52 65 110 140 229 275 533 337 757 47 167 63 305 62 520 -1 413 -87 717 -243
863 -70 65 -177 108 -195 78 -3 -4 2 -34 11 -65 22 -79 8 -91 -50 -43 -61 50
-123 80 -150 73 -33 -8 -176 -156 -206 -215 -11 -19 -10 -30 5 -62 9 -22 15
-41 13 -43 -2 -2 -29 -12 -59 -23 -42 -14 -61 -28 -82 -58 -15 -22 -27 -45
-28 -51 0 -6 30 -44 66 -85 83 -93 98 -115 90 -134 -3 -9 -18 -15 -35 -15 -31
0 -207 -67 -281 -108 -97 -53 -226 -169 -335 -302 -73 -89 -168 -181 -181
-176 -34 13 16 186 104 361 59 118 98 178 216 325 47 58 72 98 66 104 -6 6
-15 5 -23 -3 -40 -33 -47 45 -29 334 24 382 54 612 92 710 137 352 255 531
540 815 273 274 516 425 940 585 19 8 96 37 170 65 74 29 153 59 175 67 22 9
49 19 60 23 83 31 107 39 160 50 38 8 177 15 384 17 273 4 345 2 454 -13 123
-17 137 -17 296 0 91 9 202 22 246 27 204 26 881 31 943 8z m1562 -198 c0 -11
-12 -30 -27 -43 -16 -13 -68 -67 -116 -120 -93 -101 -158 -154 -176 -143 -19
11 -13 23 51 97 104 121 121 139 176 184 58 47 92 57 92 25z m-6445 -46 c169
-43 299 -145 376 -297 40 -78 13 -110 -48 -59 -194 161 -292 226 -438 286
-124 51 -140 60 -131 74 10 16 171 14 241 -4z m-715 -1150 c62 -9 136 -22 163
-30 93 -28 192 -83 260 -145 69 -63 124 -141 112 -160 -8 -12 -62 -13 -69 -1
-3 5 -17 12 -31 15 -41 10 -470 217 -575 277 -105 59 -68 71 140 44z m8754
-244 c8 -12 -81 -127 -135 -176 -219 -198 -348 -285 -596 -404 -29 -13 -53
-30 -53 -37 0 -28 107 -57 380 -104 124 -21 167 -29 189 -36 25 -8 -16 -40
-112 -87 -128 -63 -208 -88 -306 -96 -86 -6 -110 -20 -73 -40 39 -21 560 -191
585 -191 30 0 44 -17 28 -33 -22 -22 -174 -46 -291 -46 -107 0 -199 13 -320
47 -107 30 -225 90 -390 196 -165 107 -196 126 -211 126 -24 1 -52 28 -46 44
4 9 19 18 34 21 15 4 54 16 86 27 90 32 237 137 237 169 0 9 -30 26 -76 44
-42 17 -78 36 -81 43 -3 7 16 31 41 53 97 86 92 94 -94 165 -72 28 -92 51 -40
47 14 -1 95 -7 180 -13 285 -22 438 -2 700 93 132 47 194 79 275 142 74 57 81
60 89 46z m-8495 -540 c118 -41 106 -69 -54 -127 -76 -27 -182 -85 -293 -158
-121 -80 -243 -200 -212 -207 3 -1 30 3 60 9 201 37 396 52 444 33 l29 -12
-29 -30 c-16 -17 -63 -57 -104 -89 -41 -32 -125 -107 -185 -166 -61 -60 -142
-136 -180 -169 -39 -33 -72 -63 -75 -66 -3 -3 -39 -30 -80 -60 -76 -56 -117
-78 -180 -97 -19 -6 -50 -16 -69 -22 -52 -15 -59 0 -31 62 13 29 44 85 69 123
149 230 209 331 202 338 -5 5 -31 1 -59 -8 -33 -11 -89 -17 -159 -18 -105 -2
-108 -1 -111 21 -7 50 186 280 353 420 112 94 268 186 390 229 52 19 214 15
274 -6z m7416 -698 c115 -36 428 -219 670 -393 66 -48 153 -107 193 -133 40
-26 71 -51 68 -55 -10 -17 -223 10 -353 43 -126 33 -307 120 -390 187 -15 13
-84 77 -153 144 -69 66 -147 141 -174 166 -28 26 -46 50 -42 56 9 15 113 6
181 -15z m-7391 -102 c3 -4 -43 -61 -103 -125 -93 -99 -169 -192 -243 -297
-188 -264 -236 -326 -328 -419 -121 -123 -164 -160 -275 -234 -122 -82 -276
-155 -327 -156 -28 0 -21 12 28 50 121 93 333 369 552 717 123 196 231 310
344 365 67 33 282 101 335 107 6 0 14 -3 17 -8z m7406 -354 c80 -78 174 -182
210 -230 206 -279 329 -426 468 -559 84 -81 263 -220 296 -231 5 -2 6 -9 2
-16 -17 -26 -87 -2 -291 98 -350 172 -524 353 -702 729 -30 64 -77 163 -104
220 -84 177 -69 175 121 -11z m-6035 53 c71 -35 127 -92 107 -112 -8 -8 -20
-5 -45 9 -101 60 -204 66 -311 19 -99 -44 -283 -244 -375 -408 -57 -101 -89
-82 -46 29 56 146 101 238 136 282 81 102 197 193 272 212 18 5 69 7 114 5 67
-3 93 -9 148 -36z m-1305 -151 c0 -42 -217 -277 -395 -427 -197 -168 -124 -9
99 214 56 55 142 128 191 162 93 63 105 70 105 51z m1248 -95 c41 -24 82 -87
82 -127 0 -106 -137 -164 -223 -94 -41 32 -48 101 -17 152 25 40 85 85 113 85
11 0 31 -7 45 -16z m3519 1 c82 -57 83 -191 3 -239 -36 -21 -128 -21 -158 0
-53 37 -66 128 -26 189 38 58 132 84 181 50z m-3118 -202 c40 -80 55 -154 55
-278 0 -127 -9 -167 -63 -265 -96 -177 -300 -421 -420 -504 -68 -47 -71 -25
-14 96 56 117 81 204 64 221 -7 7 -43 7 -124 -3 -94 -11 -126 -11 -183 0 -76
14 -144 46 -187 88 -44 42 -141 210 -161 278 -8 28 53 100 77 91 9 -3 17 -14
17 -23 0 -40 123 -224 185 -276 11 -10 45 -30 75 -45 51 -26 64 -28 175 -28
113 0 124 2 185 31 76 36 150 101 150 132 0 37 -39 37 -111 1 -58 -29 -73 -32
-154 -33 -183 0 -303 82 -358 248 -22 64 -21 98 2 144 25 48 78 99 90 86 6 -5
21 -43 34 -85 36 -108 69 -170 116 -212 66 -59 116 -80 197 -81 68 0 73 1 125
40 80 61 140 124 157 164 8 20 17 82 20 143 5 119 17 135 51 70z m-1188 -958
c10 -38 19 -85 19 -104 0 -18 4 -61 10 -95 15 -96 30 -204 41 -286 5 -41 16
-122 24 -180 9 -58 20 -134 25 -170 5 -36 14 -92 20 -125 5 -33 10 -134 10
-223 0 -137 -3 -175 -21 -230 -27 -88 -51 -137 -68 -137 -29 0 -107 251 -134
435 -34 226 -40 323 -34 580 6 272 19 464 38 545 14 62 17 67 36 63 10 -2 22
-29 34 -73z m8577 9 c102 -41 156 -73 235 -137 74 -61 133 -157 95 -157 -6 0
-45 20 -87 44 -42 25 -104 60 -138 78 -73 38 -232 167 -233 187 0 16 70 8 128
-15z m-7093 -1853 c81 -11 127 -21 245 -48 92 -22 205 -78 251 -124 38 -38 39
-40 39 -113 0 -87 -29 -167 -93 -254 -53 -72 -66 -77 -179 -64 -284 34 -1239
61 -1518 42 l-75 -5 -3 31 c-9 89 152 314 284 397 125 78 210 111 359 138 83
15 143 17 355 15 140 -2 291 -8 335 -15z m-1680 -732 c4 -5 -1 -19 -11 -30
-13 -15 -30 -19 -75 -19 -119 0 -71 54 53 59 15 0 30 -4 33 -10z m1619 -85
c-25 -32 -29 -46 -29 -103 0 -57 4 -71 30 -108 62 -86 203 -152 327 -153 78 0
128 17 210 71 32 20 60 34 63 29 10 -16 -74 -107 -135 -148 -77 -52 -143 -72
-234 -72 -211 0 -346 110 -372 300 -9 66 11 125 55 169 75 75 139 86 85 15z
m-1010 -233 c62 -56 86 -71 136 -82 53 -12 103 6 144 51 55 61 85 49 64 -27
-24 -87 -74 -148 -151 -181 -114 -49 -292 38 -356 173 -25 52 -21 63 34 97 47
28 70 22 129 -31z m-610 -30 c9 -15 -21 -33 -70 -42 -24 -5 -72 -20 -106 -33
-34 -14 -66 -23 -71 -19 -14 8 43 63 88 84 42 19 149 26 159 10z m4584 -188
c4 -45 -47 -121 -146 -215 -83 -79 -150 -114 -173 -91 -18 18 12 51 72 77 68
29 99 60 99 98 0 102 139 225 148 131z m-4551 -108 c7 -20 -16 -45 -104 -112
-40 -30 -93 -78 -118 -106 -31 -35 -45 -46 -45 -34 0 48 67 137 159 212 68 56
97 66 108 40z m3987 -431 c29 -11 17 -24 -23 -24 -44 0 -71 8 -71 21 0 10 70
12 94 3z"/>
<path d="M10974 6529 c-4 -7 -11 -93 -15 -193 -17 -374 -29 -574 -39 -661 -21
-170 -56 -363 -86 -465 -8 -30 -19 -70 -24 -88 -4 -19 -13 -46 -18 -60 -5 -15
-29 -86 -52 -158 -58 -177 -48 -206 37 -106 148 173 294 477 354 737 19 81 19
442 1 545 -35 193 -67 317 -102 395 -5 11 -12 30 -15 43 -7 23 -29 30 -41 11z"/>
<path d="M5604 5793 c-62 -56 -196 -250 -294 -428 -18 -33 -37 -67 -42 -75
-55 -100 -138 -323 -172 -460 -61 -253 -46 -684 35 -987 37 -141 73 -215 103
-211 20 3 37 55 65 193 20 95 31 134 41 140 12 7 13 4 35 -100 81 -375 245
-743 413 -924 23 -23 47 -41 54 -39 10 4 13 83 14 399 0 217 3 403 7 414 3 11
11 61 17 110 15 132 38 261 72 405 29 125 154 486 212 615 40 88 76 199 68
207 -16 16 -240 -228 -337 -367 -81 -116 -237 -306 -248 -302 -32 10 -8 295
43 512 5 22 16 69 24 105 18 78 65 267 100 404 34 130 26 143 -49 82 -91 -75
-136 -106 -145 -101 -14 9 -12 71 7 208 28 199 23 241 -23 200z"/>
<path d="M11523 4338 c-6 -13 -97 -196 -201 -408 -284 -575 -302 -627 -180
-513 156 147 332 426 383 608 10 33 21 70 26 82 12 32 23 196 15 227 -8 32
-29 34 -43 4z"/>
<path d="M6500 3778 c-72 -73 -161 -199 -207 -293 -138 -283 -182 -694 -106
-990 43 -166 127 -315 178 -315 15 0 16 9 11 88 -27 390 -14 682 44 927 32
136 60 242 90 340 40 128 79 279 74 286 -11 19 -34 7 -84 -43z"/>
<path d="M7155 3058 c-72 -84 -151 -254 -180 -390 -34 -157 -27 -319 25 -583
41 -211 150 -475 236 -573 82 -94 114 -89 114 17 0 131 35 463 60 576 45 202
80 304 206 606 93 221 110 278 88 286 -14 5 -129 -114 -197 -202 -112 -147
-252 -389 -271 -468 -5 -20 -12 -27 -24 -25 -13 2 -19 17 -24 58 -9 83 -8 322
3 440 19 204 22 281 12 291 -7 7 -23 -4 -48 -33z"/>
<path d="M8839 2723 c-332 -335 -446 -475 -543 -667 -52 -101 -65 -138 -81
-222 -25 -142 -17 -294 25 -464 24 -96 46 -160 72 -215 37 -77 53 -93 75 -79
23 15 33 53 78 324 56 331 153 597 336 927 59 106 177 342 207 416 37 87 42
147 14 147 -9 0 -92 -75 -183 -167z"/>
</g>
</svg>
